<svg id="Livello_1" data-name="Livello 1" xmlns="http://www.w3.org/2000/svg" xmlns:xlink="http://www.w3.org/1999/xlink" viewBox="0 0 278.19 292.34"><defs><style>.cls-1{fill:url(#Sfumatura_senza_nome_6);}.cls-2{fill:none;stroke:#1e1e1c;stroke-miterlimit:10;}.cls-3{fill:url(#Sfumatura_senza_nome_6-2);}.cls-4{fill:url(#Sfumatura_senza_nome_6-3);}.cls-5{fill:url(#Sfumatura_senza_nome_6-4);}.cls-6{fill:url(#Sfumatura_senza_nome_6-5);}.cls-7{fill:url(#Sfumatura_senza_nome_6-6);}.cls-8{fill:#fbeef6;}</style><linearGradient id="Sfumatura_senza_nome_6" x1="329.26" y1="215.79" x2="523.32" y2="404.1" gradientUnits="userSpaceOnUse"><stop offset="0" stop-color="#80c07d"/><stop offset="0.41" stop-color="#7ebe7c"/><stop offset="0.64" stop-color="#75b779"/><stop offset="0.84" stop-color="#67ab73"/><stop offset="1" stop-color="#549b6b"/></linearGradient><linearGradient id="Sfumatura_senza_nome_6-2" x1="12.12" y1="118.69" x2="42.16" y2="118.69" xlink:href="#Sfumatura_senza_nome_6"/><linearGradient id="Sfumatura_senza_nome_6-3" x1="0" y1="60.29" x2="24.24" y2="60.29" xlink:href="#Sfumatura_senza_nome_6"/><linearGradient id="Sfumatura_senza_nome_6-4" x1="5.87" y1="6.26" x2="18.38" y2="6.26" xlink:href="#Sfumatura_senza_nome_6"/><linearGradient id="Sfumatura_senza_nome_6-5" x1="41.98" y1="17.39" x2="64.26" y2="17.39" xlink:href="#Sfumatura_senza_nome_6"/><linearGradient id="Sfumatura_senza_nome_6-6" x1="91.7" y1="48.17" x2="123.62" y2="48.17" xlink:href="#Sfumatura_senza_nome_6"/></defs><title>Senza titolo-1</title><path class="cls-1" d="M560.44,318.91a124.92,124.92,0,0,1-248.35,19.24A22,22,0,0,1,290,316.91a21.25,21.25,0,0,1,1.49-6.06,20,20,0,0,1,7.55-9,22.14,22.14,0,0,1,13.08-3.71,26.31,26.31,0,0,0,21.43-34.53,24.47,24.47,0,0,0-5.4-8.57v0h0a35.69,35.69,0,0,1-9.64-19.13c-1.41-9.54,2.83-19.28,10.94-25.4a28.73,28.73,0,0,1,19.15-7c11.92.24,19.24,8.09,20.58,9.59,5.52,10.08,17.25,14.84,27.6,11.64,11.48-3.55,18.65-16.08,15.63-28.53a21.46,21.46,0,0,1,5.45-15.38A19.56,19.56,0,0,1,451.43,195,124.92,124.92,0,0,1,560.44,318.91Z" transform="translate(-282.25 -151.48)"/><path class="cls-2" d="M451.43,195v0" transform="translate(-282.25 -151.48)"/><line class="cls-2" x1="29.86" y1="186.67" x2="29.84" y2="186.67"/><circle class="cls-3" cx="27.14" cy="118.69" r="15.02"/><circle class="cls-4" cx="12.12" cy="60.29" r="12.12"/><circle class="cls-5" cx="12.12" cy="6.26" r="6.26"/><circle class="cls-6" cx="53.12" cy="17.39" r="11.14"/><circle class="cls-7" cx="107.66" cy="48.17" r="15.96"/><polygon class="cls-8" points="79.27 235.21 79.27 99.28 184.21 172.84 184.21 122.8 223.19 99.28 223.19 235.21 117.61 161.79 117.61 209.87 79.27 235.21"/></svg>