<?xml version="1.0" encoding="utf-8"?>
<!-- Generator: Adobe Illustrator 24.0.1, SVG Export Plug-In . SVG Version: 6.00 Build 0)  -->
<svg version="1.1" id="Livello_1" xmlns="http://www.w3.org/2000/svg" xmlns:xlink="http://www.w3.org/1999/xlink" x="0px" y="0px"
	 viewBox="0 0 1615.7 283.5" style="enable-background:new 0 0 1615.7 283.5;" xml:space="preserve">
<style type="text/css">
	.st0{fill:url(#SVGID_1_);}
	.st1{fill:none;stroke:#1E1E1C;stroke-miterlimit:10;}
	.st2{fill:url(#SVGID_2_);}
	.st3{fill:url(#SVGID_3_);}
	.st4{fill:url(#SVGID_4_);}
	.st5{fill:url(#SVGID_5_);}
	.st6{fill:url(#SVGID_6_);}
	.st7{fill:#FBEEF6;}
	.st8{fill:#FFFFFF;stroke:#1E1E1C;stroke-miterlimit:10;}
	.st9{fill:#FFFFFF;}
</style>
<title>pittogramma</title>
<g>
	<g>
		
			<linearGradient id="SVGID_1_" gradientUnits="userSpaceOnUse" x1="341.4565" y1="24.1621" x2="525.853" y2="-154.7707" gradientTransform="matrix(1 0 0 -1 -282.08 88.1084)">
			<stop  offset="0" style="stop-color:#80C07D"/>
			<stop  offset="0.41" style="stop-color:#7EBE7C"/>
			<stop  offset="0.64" style="stop-color:#75B779"/>
			<stop  offset="0.84" style="stop-color:#67AB73"/>
			<stop  offset="1" style="stop-color:#549B6B"/>
		</linearGradient>
		<path class="st0" d="M279,161.9c0,65.6-53.1,118.7-118.7,118.7c-58.5,0-108.3-42.6-117.3-100.4c-11.3,0-20.6-8.9-21-20.2
			c0.2-2,0.7-3.9,1.4-5.8c1.5-3.5,4-6.5,7.2-8.6c3.7-2.5,8-3.7,12.4-3.5c13.7-1.8,23.3-14.4,21.4-28.1c-0.2-1.6-0.6-3.2-1.1-4.7
			c-1.1-3.1-2.9-5.8-5.1-8.2l0,0l0,0c-4.8-5-8-11.3-9.2-18.2c-1.3-9.1,2.7-18.3,10.4-24.1c5.1-4.4,11.5-6.7,18.2-6.7
			c11.3,0.2,18.3,7.7,19.6,9.1c5.2,9.6,16.4,14.1,26.2,11.1c10.9-3.4,17.7-15.3,14.8-27.1c-0.3-5.4,1.6-10.6,5.2-14.6
			c7.2-7.3,18.9-7.5,26.3-0.3c3.7,3.6,5.7,8.6,5.6,13.8C234.7,51.8,279,102.2,279,161.9z"/>
		<line class="st1" x1="43.1" y1="180.2" x2="43.1" y2="180.2"/>
		
			<linearGradient id="SVGID_2_" gradientUnits="userSpaceOnUse" x1="26.228" y1="123.9741" x2="54.7721" y2="123.9741" gradientTransform="matrix(1 0 0 -1 0 239.5884)">
			<stop  offset="0" style="stop-color:#80C07D"/>
			<stop  offset="0.41" style="stop-color:#7EBE7C"/>
			<stop  offset="0.64" style="stop-color:#75B779"/>
			<stop  offset="0.84" style="stop-color:#67AB73"/>
			<stop  offset="1" style="stop-color:#549B6B"/>
		</linearGradient>
		<circle class="st2" cx="40.5" cy="115.6" r="14.3"/>
		
			<linearGradient id="SVGID_3_" gradientUnits="userSpaceOnUse" x1="14.7115" y1="179.466" x2="37.7444" y2="179.466" gradientTransform="matrix(1 0 0 -1 0 239.5884)">
			<stop  offset="0" style="stop-color:#80C07D"/>
			<stop  offset="0.41" style="stop-color:#7EBE7C"/>
			<stop  offset="0.64" style="stop-color:#75B779"/>
			<stop  offset="0.84" style="stop-color:#67AB73"/>
			<stop  offset="1" style="stop-color:#549B6B"/>
		</linearGradient>
		<circle class="st3" cx="26.2" cy="60.1" r="11.5"/>
		
			<linearGradient id="SVGID_4_" gradientUnits="userSpaceOnUse" x1="20.2797" y1="230.8055" x2="32.1762" y2="230.8055" gradientTransform="matrix(1 0 0 -1 0 239.5884)">
			<stop  offset="0" style="stop-color:#80C07D"/>
			<stop  offset="0.41" style="stop-color:#7EBE7C"/>
			<stop  offset="0.64" style="stop-color:#75B779"/>
			<stop  offset="0.84" style="stop-color:#67AB73"/>
			<stop  offset="1" style="stop-color:#549B6B"/>
		</linearGradient>
		<circle class="st4" cx="26.2" cy="8.8" r="5.9"/>
		
			<linearGradient id="SVGID_5_" gradientUnits="userSpaceOnUse" x1="54.601" y1="220.2297" x2="75.7716" y2="220.2297" gradientTransform="matrix(1 0 0 -1 0 239.5884)">
			<stop  offset="0" style="stop-color:#80C07D"/>
			<stop  offset="0.41" style="stop-color:#7EBE7C"/>
			<stop  offset="0.64" style="stop-color:#75B779"/>
			<stop  offset="0.84" style="stop-color:#67AB73"/>
			<stop  offset="1" style="stop-color:#549B6B"/>
		</linearGradient>
		<circle class="st5" cx="65.2" cy="19.4" r="10.6"/>
		
			<linearGradient id="SVGID_6_" gradientUnits="userSpaceOnUse" x1="101.8451" y1="190.9825" x2="132.1756" y2="190.9825" gradientTransform="matrix(1 0 0 -1 0 239.5884)">
			<stop  offset="0" style="stop-color:#80C07D"/>
			<stop  offset="0.41" style="stop-color:#7EBE7C"/>
			<stop  offset="0.64" style="stop-color:#75B779"/>
			<stop  offset="0.84" style="stop-color:#67AB73"/>
			<stop  offset="1" style="stop-color:#549B6B"/>
		</linearGradient>
		<circle class="st6" cx="117" cy="48.6" r="15.2"/>
		<polygon class="st7" points="90,226.3 90,97.2 189.7,167.1 189.7,119.5 226.8,97.2 226.8,226.3 126.5,156.6 126.5,202.3 		"/>
	</g>
	<g>
		<path class="st8" d="M612.4,103.7L612.4,103.7"/>
		<g>
			<path class="st9" d="M309,204.1v-96.4h11c15,23.1,50.3,77,56.3,87.5h0.1c-0.8-13.9-0.7-28.1-0.7-43.8v-43.7h7.6v96.4h-10.2
				c-14.3-22.3-50.1-78.4-57-89h-0.1c0.7,12.7,0.6,26.7,0.6,44.2v44.8H309z"/>
			<path class="st9" d="M429.6,107.7v96.4h-7.4v-96.4H429.6z"/>
			<path class="st9" d="M539.6,178.4c-4.5,15.3-15.8,26.9-36.2,26.9c-27.7,0-42.3-22-42.3-49.2c0-26,14.3-49.7,42.4-49.7
				c20.8,0,33.1,11.6,36.2,27.7h-7.4c-4.4-12.5-12.5-20.8-29.2-20.8c-24,0-34,21.9-34,42.7c0,20.7,9.9,42.4,34.6,42.4
				c15.7,0,23.7-8.1,28.5-20H539.6z"/>
			<path class="st9" d="M651.9,155.2c0,26.3-14.1,50.3-43.8,50.3c-27.1,0-43-21.9-43-49.6c0-27.3,15.3-49.6,43.9-49.6
				C635.5,106.3,651.9,127.1,651.9,155.2z M573.1,155.5c0,22.2,12.3,43.1,35.4,43.1c24.9,0,35.4-20.4,35.4-43.3
				c0-22.5-11.8-42.2-35.1-42.2C584,113.2,573.1,133.7,573.1,155.5z"/>
			<path class="st9" d="M683.4,107.7h7.4v89.5h51.8l-1.4,6.9h-57.9V107.7z"/>
			<path class="st9" d="M846,155.2c0,26.3-14.1,50.3-43.8,50.3c-27.1,0-43-21.9-43-49.6c0-27.3,15.3-49.6,43.9-49.6
				C829.6,106.3,846,127.1,846,155.2z M767.2,155.5c0,22.2,12.3,43.1,35.4,43.1c24.9,0,35.4-20.4,35.4-43.3
				c0-22.5-11.8-42.2-35.1-42.2C778.1,113.2,767.2,133.7,767.2,155.5z M789.3,78l20.1,18.9h-8.4L779,78H789.3z"/>
			<path class="st9" d="M923.6,107.7h33.6c18.5,0,28.4,9.8,28.4,23.7c0,11.4-6.9,18.9-14.9,21.1c6.9,1.9,18.3,8.7,18.3,23.8
				c0,19.3-14.5,27.8-31.3,27.8h-34.2V107.7z M954.8,149.2c16.7,0,23-6.2,23-17.4c0-9.5-6.6-17.2-20.1-17.2h-26.7v34.6H954.8z
				 M930.9,197.2h27.1c12.7,0,23.3-6.3,23.3-20.5c0-12.3-7.9-20.7-27.3-20.7h-23.1V197.2z"/>
			<path class="st9" d="M1078,156.7h-49.2v40.5h53.9l-1.1,6.9h-60.2v-96.4h59.1v6.9h-51.7v35.3h49.2V156.7z"/>
			<path class="st9" d="M1112.1,107.7h7.4v89.5h51.8l-1.4,6.9h-57.9V107.7z"/>
			<path class="st9" d="M1202,114.6h-32.4v-6.9h72.5v6.9h-32.5v89.5h-7.6V114.6z"/>
			<path class="st9" d="M1274.3,159.1v45h-7.6v-96.4h34.6c19,0,29.1,10.2,29.1,25.3c0,12.3-7.3,20.2-18,22.6
				c9.9,2.3,16.5,8.8,16.5,25.2v3.7c0,6.7-0.6,15.8,1.2,19.6h-7.6c-1.8-4.1-1.4-11.8-1.4-20.1v-2.5c0-15.8-4.7-22.5-23.1-22.5
				H1274.3z M1274.3,152.2h23.3c16.9,0,24.8-6.3,24.8-19c0-11.8-7.7-18.6-22.7-18.6h-25.3V152.2z"/>
			<path class="st9" d="M1375.3,170.8l-12.3,33.3h-7.6l35.4-96.4h8.8l36.9,96.4h-8.1l-12.5-33.3H1375.3z M1413.4,163.9
				c-10.7-28.7-16.3-42.4-18.2-48.9h-0.1c-2.3,7.3-8.5,24.4-17.2,48.9H1413.4z"/>
			<path class="st9" d="M1547.5,159.8c0-18.9,0.1-36.9,0.6-46.6h-0.4c-3.9,12.9-23.4,60.5-35.7,90.9h-7.3
				c-9.2-23.6-29.5-76.5-33.9-91.1h-0.3c0.7,11,1,33.5,1,50v41.1h-7.4v-96.4h11.2c13.2,33.1,29.9,76.3,33.5,87.2h0.3
				c2.2-7,21.5-55.1,35-87.2h11v96.4h-7.4V159.8z"/>
			<path class="st9" d="M1601,107.7v96.4h-7.4v-96.4H1601z"/>
		</g>
	</g>
</g>
</svg>
